<mxfile host="app.diagrams.net" modified="2020-06-02T20:09:11.223Z" agent="5.0 (Windows NT 10.0; Win64; x64) AppleWebKit/537.36 (KHTML, like Gecko) Chrome/83.0.4103.61 Safari/537.36" etag="CMcWHghh7Uj7nQIeN97D" version="13.1.13" type="github">
  <diagram id="jd8jm0HN9QcjhU1Jb5uy" name="Page-1">
    <mxGraphModel dx="1024" dy="622" grid="1" gridSize="10" guides="1" tooltips="1" connect="1" arrows="1" fold="1" page="1" pageScale="1" pageWidth="827" pageHeight="1169" math="0" shadow="0">
      <root>
        <mxCell id="0" />
        <mxCell id="1" parent="0" />
        <mxCell id="0pvRadDIvEGsYMAwIo_h-4" style="rounded=0;orthogonalLoop=1;jettySize=auto;html=1;exitX=1;exitY=0.5;exitDx=0;exitDy=0;entryX=0;entryY=0.5;entryDx=0;entryDy=0;" edge="1" parent="1" source="0pvRadDIvEGsYMAwIo_h-1" target="0pvRadDIvEGsYMAwIo_h-2">
          <mxGeometry relative="1" as="geometry" />
        </mxCell>
        <mxCell id="0pvRadDIvEGsYMAwIo_h-1" value="" style="ellipse;whiteSpace=wrap;html=1;aspect=fixed;" vertex="1" parent="1">
          <mxGeometry x="110" y="160" width="40" height="40" as="geometry" />
        </mxCell>
        <mxCell id="0pvRadDIvEGsYMAwIo_h-6" style="rounded=0;orthogonalLoop=1;jettySize=auto;html=1;" edge="1" parent="1" source="0pvRadDIvEGsYMAwIo_h-2" target="0pvRadDIvEGsYMAwIo_h-3">
          <mxGeometry relative="1" as="geometry" />
        </mxCell>
        <mxCell id="0pvRadDIvEGsYMAwIo_h-2" value="" style="ellipse;whiteSpace=wrap;html=1;aspect=fixed;" vertex="1" parent="1">
          <mxGeometry x="280" y="160" width="40" height="40" as="geometry" />
        </mxCell>
        <mxCell id="0pvRadDIvEGsYMAwIo_h-3" value="" style="ellipse;whiteSpace=wrap;html=1;aspect=fixed;" vertex="1" parent="1">
          <mxGeometry x="440" y="110" width="40" height="40" as="geometry" />
        </mxCell>
      </root>
    </mxGraphModel>
  </diagram>
</mxfile>
